<svg xmlns="http://www.w3.org/2000/svg" width="300" height="300"><defs><clipPath id="a"><path d="M15 63h6v6h-6zM15 75h6v6h-6zM15 99h6v6h-6zM15 111h6v6h-6zM15 117h6v6h-6zM15 141h6v6h-6zM15 159h6v6h-6zM15 165h6v6h-6zM15 171h6v6h-6zM15 189h6v6h-6zM15 195h6v6h-6zM15 207h6v6h-6zM15 231h6v6h-6zM21 81h6v6h-6zM21 105h6v6h-6zM21 123h6v6h-6zM21 141h6v6h-6zM21 153h6v6h-6zM21 159h6v6h-6zM21 177h6v6h-6zM21 183h6v6h-6zM21 195h6v6h-6zM21 201h6v6h-6zM21 213h6v6h-6zM21 225h6v6h-6zM27 63h6v6h-6zM27 75h6v6h-6zM27 81h6v6h-6zM27 99h6v6h-6zM27 117h6v6h-6zM27 123h6v6h-6zM27 129h6v6h-6zM27 135h6v6h-6zM27 141h6v6h-6zM27 153h6v6h-6zM27 165h6v6h-6zM27 171h6v6h-6zM27 207h6v6h-6zM27 225h6v6h-6zM33 63h6v6h-6zM33 75h6v6h-6zM33 81h6v6h-6zM33 87h6v6h-6zM33 105h6v6h-6zM33 123h6v6h-6zM33 129h6v6h-6zM33 135h6v6h-6zM33 141h6v6h-6zM33 147h6v6h-6zM33 165h6v6h-6zM33 171h6v6h-6zM33 195h6v6h-6zM33 225h6v6h-6zM33 231h6v6h-6zM39 87h6v6h-6zM39 105h6v6h-6zM39 129h6v6h-6zM39 135h6v6h-6zM39 141h6v6h-6zM39 147h6v6h-6zM39 153h6v6h-6zM39 159h6v6h-6zM39 189h6v6h-6zM39 195h6v6h-6zM39 201h6v6h-6zM39 219h6v6h-6zM39 225h6v6h-6zM39 231h6v6h-6zM45 63h6v6h-6zM45 81h6v6h-6zM45 87h6v6h-6zM45 99h6v6h-6zM45 111h6v6h-6zM45 117h6v6h-6zM45 129h6v6h-6zM45 135h6v6h-6zM45 159h6v6h-6zM45 165h6v6h-6zM45 171h6v6h-6zM45 177h6v6h-6zM45 183h6v6h-6zM45 195h6v6h-6zM45 201h6v6h-6zM45 207h6v6h-6zM51 63h6v6h-6zM51 75h6v6h-6zM51 87h6v6h-6zM51 99h6v6h-6zM51 111h6v6h-6zM51 123h6v6h-6zM51 135h6v6h-6zM51 147h6v6h-6zM51 159h6v6h-6zM51 171h6v6h-6zM51 183h6v6h-6zM51 195h6v6h-6zM51 207h6v6h-6zM51 219h6v6h-6zM51 231h6v6h-6zM57 63h6v6h-6zM57 75h6v6h-6zM57 87h6v6h-6zM57 93h6v6h-6zM57 99h6v6h-6zM57 111h6v6h-6zM57 117h6v6h-6zM57 123h6v6h-6zM57 129h6v6h-6zM57 135h6v6h-6zM57 159h6v6h-6zM57 171h6v6h-6zM57 183h6v6h-6zM57 189h6v6h-6zM57 201h6v6h-6zM57 213h6v6h-6zM57 225h6v6h-6zM57 231h6v6h-6zM63 21h6v6h-6zM63 33h6v6h-6zM63 45h6v6h-6zM63 51h6v6h-6zM63 57h6v6h-6zM63 63h6v6h-6zM63 69h6v6h-6zM63 81h6v6h-6zM63 99h6v6h-6zM63 117h6v6h-6zM63 123h6v6h-6zM63 135h6v6h-6zM63 141h6v6h-6zM63 147h6v6h-6zM63 153h6v6h-6zM63 159h6v6h-6zM63 177h6v6h-6zM63 183h6v6h-6zM63 189h6v6h-6zM63 201h6v6h-6zM63 219h6v6h-6zM63 225h6v6h-6zM63 237h6v6h-6zM63 243h6v6h-6zM63 249h6v6h-6zM63 261h6v6h-6zM63 267h6v6h-6zM63 279h6v6h-6zM69 15h6v6h-6zM69 45h6v6h-6zM69 57h6v6h-6zM69 63h6v6h-6zM69 69h6v6h-6zM69 75h6v6h-6zM69 99h6v6h-6zM69 105h6v6h-6zM69 111h6v6h-6zM69 117h6v6h-6zM69 123h6v6h-6zM69 129h6v6h-6zM69 147h6v6h-6zM69 153h6v6h-6zM69 249h6v6h-6zM69 267h6v6h-6zM69 279h6v6h-6zM75 21h6v6h-6zM75 39h6v6h-6zM75 45h6v6h-6zM75 51h6v6h-6zM75 69h6v6h-6zM75 87h6v6h-6zM75 99h6v6h-6zM75 129h6v6h-6zM75 147h6v6h-6zM75 153h6v6h-6zM75 159h6v6h-6zM75 165h6v6h-6zM75 189h6v6h-6zM75 207h6v6h-6zM75 213h6v6h-6zM75 219h6v6h-6zM75 225h6v6h-6zM75 249h6v6h-6zM75 279h6v6h-6zM81 15h6v6h-6zM81 33h6v6h-6zM81 39h6v6h-6zM81 57h6v6h-6zM81 69h6v6h-6zM81 81h6v6h-6zM81 87h6v6h-6zM81 111h6v6h-6zM81 129h6v6h-6zM81 141h6v6h-6zM81 147h6v6h-6zM81 153h6v6h-6zM81 165h6v6h-6zM81 171h6v6h-6zM81 183h6v6h-6zM81 213h6v6h-6zM81 225h6v6h-6zM81 231h6v6h-6zM81 255h6v6h-6zM81 261h6v6h-6zM81 279h6v6h-6zM87 27h6v6h-6zM87 33h6v6h-6zM87 39h6v6h-6zM87 51h6v6h-6zM87 57h6v6h-6zM87 63h6v6h-6zM87 69h6v6h-6zM87 75h6v6h-6zM87 81h6v6h-6zM87 93h6v6h-6zM87 99h6v6h-6zM87 105h6v6h-6zM87 111h6v6h-6zM87 123h6v6h-6zM87 153h6v6h-6zM87 177h6v6h-6zM87 183h6v6h-6zM87 207h6v6h-6zM87 213h6v6h-6zM87 237h6v6h-6zM87 249h6v6h-6zM87 255h6v6h-6zM87 267h6v6h-6zM93 15h6v6h-6zM93 21h6v6h-6zM93 39h6v6h-6zM93 45h6v6h-6zM93 57h6v6h-6zM93 75h6v6h-6zM93 93h6v6h-6zM93 117h6v6h-6zM93 123h6v6h-6zM93 135h6v6h-6zM93 141h6v6h-6zM93 165h6v6h-6zM93 177h6v6h-6zM93 183h6v6h-6zM93 201h6v6h-6zM93 207h6v6h-6zM93 219h6v6h-6zM93 237h6v6h-6zM93 279h6v6h-6zM99 15h6v6h-6zM99 21h6v6h-6zM99 51h6v6h-6zM99 57h6v6h-6zM99 81h6v6h-6zM99 87h6v6h-6zM99 105h6v6h-6zM99 123h6v6h-6zM99 135h6v6h-6zM99 171h6v6h-6zM99 177h6v6h-6zM99 183h6v6h-6zM99 189h6v6h-6zM99 195h6v6h-6zM99 201h6v6h-6zM99 225h6v6h-6zM99 231h6v6h-6zM99 243h6v6h-6zM99 255h6v6h-6zM99 267h6v6h-6zM99 273h6v6h-6zM105 45h6v6h-6zM105 57h6v6h-6zM105 63h6v6h-6zM105 81h6v6h-6zM105 87h6v6h-6zM105 93h6v6h-6zM105 111h6v6h-6zM105 135h6v6h-6zM105 153h6v6h-6zM105 171h6v6h-6zM105 177h6v6h-6zM105 183h6v6h-6zM105 207h6v6h-6zM105 213h6v6h-6zM105 219h6v6h-6zM105 231h6v6h-6zM105 243h6v6h-6zM105 249h6v6h-6zM105 273h6v6h-6zM105 279h6v6h-6zM111 21h6v6h-6zM111 33h6v6h-6zM111 39h6v6h-6zM111 51h6v6h-6zM111 57h6v6h-6zM111 81h6v6h-6zM111 111h6v6h-6zM111 117h6v6h-6zM111 123h6v6h-6zM111 135h6v6h-6zM111 141h6v6h-6zM111 147h6v6h-6zM111 159h6v6h-6zM111 165h6v6h-6zM111 171h6v6h-6zM111 177h6v6h-6zM111 207h6v6h-6zM111 219h6v6h-6zM111 225h6v6h-6zM111 249h6v6h-6zM117 21h6v6h-6zM117 27h6v6h-6zM117 39h6v6h-6zM117 45h6v6h-6zM117 63h6v6h-6zM117 75h6v6h-6zM117 81h6v6h-6zM117 93h6v6h-6zM117 105h6v6h-6zM117 117h6v6h-6zM117 123h6v6h-6zM117 147h6v6h-6zM117 171h6v6h-6zM117 177h6v6h-6zM117 183h6v6h-6zM117 189h6v6h-6zM117 207h6v6h-6zM117 213h6v6h-6zM117 243h6v6h-6zM117 249h6v6h-6zM117 255h6v6h-6zM117 261h6v6h-6zM117 267h6v6h-6zM117 273h6v6h-6zM123 21h6v6h-6zM123 27h6v6h-6zM123 45h6v6h-6zM123 51h6v6h-6zM123 57h6v6h-6zM123 63h6v6h-6zM123 69h6v6h-6zM123 81h6v6h-6zM123 87h6v6h-6zM123 105h6v6h-6zM123 111h6v6h-6zM123 123h6v6h-6zM123 129h6v6h-6zM123 135h6v6h-6zM123 141h6v6h-6zM123 147h6v6h-6zM123 171h6v6h-6zM123 177h6v6h-6zM123 183h6v6h-6zM123 201h6v6h-6zM123 207h6v6h-6zM123 225h6v6h-6zM123 255h6v6h-6zM123 261h6v6h-6zM123 273h6v6h-6zM123 279h6v6h-6zM129 15h6v6h-6zM129 21h6v6h-6zM129 27h6v6h-6zM129 57h6v6h-6zM129 69h6v6h-6zM129 75h6v6h-6zM129 105h6v6h-6zM129 111h6v6h-6zM129 117h6v6h-6zM129 135h6v6h-6zM129 147h6v6h-6zM129 153h6v6h-6zM129 177h6v6h-6zM129 183h6v6h-6zM129 189h6v6h-6zM129 195h6v6h-6zM129 207h6v6h-6zM129 219h6v6h-6zM129 225h6v6h-6zM129 255h6v6h-6zM135 15h6v6h-6zM135 21h6v6h-6zM135 33h6v6h-6zM135 39h6v6h-6zM135 45h6v6h-6zM135 51h6v6h-6zM135 57h6v6h-6zM135 63h6v6h-6zM135 69h6v6h-6zM135 87h6v6h-6zM135 99h6v6h-6zM135 105h6v6h-6zM135 111h6v6h-6zM135 117h6v6h-6zM135 123h6v6h-6zM135 135h6v6h-6zM135 141h6v6h-6zM135 147h6v6h-6zM135 153h6v6h-6zM135 159h6v6h-6zM135 165h6v6h-6zM135 183h6v6h-6zM135 195h6v6h-6zM135 201h6v6h-6zM135 213h6v6h-6zM135 219h6v6h-6zM135 231h6v6h-6zM135 237h6v6h-6zM135 243h6v6h-6zM135 249h6v6h-6zM135 255h6v6h-6zM135 273h6v6h-6zM141 39h6v6h-6zM141 63h6v6h-6zM141 75h6v6h-6zM141 81h6v6h-6zM141 87h6v6h-6zM141 93h6v6h-6zM141 105h6v6h-6zM141 111h6v6h-6zM141 123h6v6h-6zM141 129h6v6h-6zM141 135h6v6h-6zM141 159h6v6h-6zM141 165h6v6h-6zM141 183h6v6h-6zM141 207h6v6h-6zM141 213h6v6h-6zM141 231h6v6h-6zM141 255h6v6h-6zM141 261h6v6h-6zM141 267h6v6h-6zM141 279h6v6h-6zM147 15h6v6h-6zM147 21h6v6h-6zM147 33h6v6h-6zM147 39h6v6h-6zM147 51h6v6h-6zM147 63h6v6h-6zM147 75h6v6h-6zM147 81h6v6h-6zM147 87h6v6h-6zM147 135h6v6h-6zM147 147h6v6h-6zM147 159h6v6h-6zM147 171h6v6h-6zM147 177h6v6h-6zM147 201h6v6h-6zM147 207h6v6h-6zM147 219h6v6h-6zM147 225h6v6h-6zM147 231h6v6h-6zM147 243h6v6h-6zM147 255h6v6h-6zM147 267h6v6h-6zM147 273h6v6h-6zM147 279h6v6h-6zM153 15h6v6h-6zM153 21h6v6h-6zM153 27h6v6h-6zM153 33h6v6h-6zM153 39h6v6h-6zM153 63h6v6h-6zM153 75h6v6h-6zM153 99h6v6h-6zM153 117h6v6h-6zM153 123h6v6h-6zM153 135h6v6h-6zM153 159h6v6h-6zM153 177h6v6h-6zM153 201h6v6h-6zM153 219h6v6h-6zM153 231h6v6h-6zM153 255h6v6h-6zM153 261h6v6h-6zM159 15h6v6h-6zM159 27h6v6h-6zM159 33h6v6h-6zM159 39h6v6h-6zM159 45h6v6h-6zM159 51h6v6h-6zM159 57h6v6h-6zM159 63h6v6h-6zM159 69h6v6h-6zM159 75h6v6h-6zM159 87h6v6h-6zM159 99h6v6h-6zM159 105h6v6h-6zM159 111h6v6h-6zM159 117h6v6h-6zM159 129h6v6h-6zM159 135h6v6h-6zM159 141h6v6h-6zM159 147h6v6h-6zM159 153h6v6h-6zM159 159h6v6h-6zM159 165h6v6h-6zM159 177h6v6h-6zM159 183h6v6h-6zM159 201h6v6h-6zM159 207h6v6h-6zM159 219h6v6h-6zM159 225h6v6h-6zM159 231h6v6h-6zM159 237h6v6h-6zM159 243h6v6h-6zM159 249h6v6h-6zM159 255h6v6h-6zM159 261h6v6h-6zM165 27h6v6h-6zM165 39h6v6h-6zM165 93h6v6h-6zM165 105h6v6h-6zM165 111h6v6h-6zM165 147h6v6h-6zM165 159h6v6h-6zM165 183h6v6h-6zM165 201h6v6h-6zM165 207h6v6h-6zM165 219h6v6h-6zM165 225h6v6h-6zM165 231h6v6h-6zM165 243h6v6h-6zM165 255h6v6h-6zM165 273h6v6h-6zM171 15h6v6h-6zM171 39h6v6h-6zM171 51h6v6h-6zM171 69h6v6h-6zM171 75h6v6h-6zM171 81h6v6h-6zM171 87h6v6h-6zM171 99h6v6h-6zM171 117h6v6h-6zM171 123h6v6h-6zM171 129h6v6h-6zM171 147h6v6h-6zM171 153h6v6h-6zM171 159h6v6h-6zM171 165h6v6h-6zM171 177h6v6h-6zM171 189h6v6h-6zM171 201h6v6h-6zM171 207h6v6h-6zM171 237h6v6h-6zM171 273h6v6h-6zM177 15h6v6h-6zM177 21h6v6h-6zM177 57h6v6h-6zM177 63h6v6h-6zM177 75h6v6h-6zM177 105h6v6h-6zM177 117h6v6h-6zM177 123h6v6h-6zM177 135h6v6h-6zM177 141h6v6h-6zM177 183h6v6h-6zM177 195h6v6h-6zM177 207h6v6h-6zM177 225h6v6h-6zM177 231h6v6h-6zM177 237h6v6h-6zM177 249h6v6h-6zM177 255h6v6h-6zM177 273h6v6h-6zM177 279h6v6h-6zM183 21h6v6h-6zM183 39h6v6h-6zM183 45h6v6h-6zM183 51h6v6h-6zM183 57h6v6h-6zM183 81h6v6h-6zM183 93h6v6h-6zM183 105h6v6h-6zM183 117h6v6h-6zM183 129h6v6h-6zM183 135h6v6h-6zM183 171h6v6h-6zM183 177h6v6h-6zM183 189h6v6h-6zM183 195h6v6h-6zM183 207h6v6h-6zM183 243h6v6h-6zM183 255h6v6h-6zM189 15h6v6h-6zM189 21h6v6h-6zM189 45h6v6h-6zM189 57h6v6h-6zM189 63h6v6h-6zM189 93h6v6h-6zM189 99h6v6h-6zM189 105h6v6h-6zM189 111h6v6h-6zM189 117h6v6h-6zM189 135h6v6h-6zM189 141h6v6h-6zM189 147h6v6h-6zM189 153h6v6h-6zM189 183h6v6h-6zM189 207h6v6h-6zM189 231h6v6h-6zM189 237h6v6h-6zM189 243h6v6h-6zM189 249h6v6h-6zM189 261h6v6h-6zM189 273h6v6h-6zM189 279h6v6h-6zM195 27h6v6h-6zM195 33h6v6h-6zM195 51h6v6h-6zM195 57h6v6h-6zM195 63h6v6h-6zM195 69h6v6h-6zM195 75h6v6h-6zM195 93h6v6h-6zM195 105h6v6h-6zM195 111h6v6h-6zM195 117h6v6h-6zM195 123h6v6h-6zM195 129h6v6h-6zM195 141h6v6h-6zM195 147h6v6h-6zM195 153h6v6h-6zM195 165h6v6h-6zM195 171h6v6h-6zM195 177h6v6h-6zM195 183h6v6h-6zM195 207h6v6h-6zM195 213h6v6h-6zM195 231h6v6h-6zM195 237h6v6h-6zM195 243h6v6h-6zM195 249h6v6h-6zM195 255h6v6h-6zM195 273h6v6h-6zM195 279h6v6h-6zM201 15h6v6h-6zM201 21h6v6h-6zM201 27h6v6h-6zM201 39h6v6h-6zM201 63h6v6h-6zM201 69h6v6h-6zM201 81h6v6h-6zM201 111h6v6h-6zM201 117h6v6h-6zM201 123h6v6h-6zM201 129h6v6h-6zM201 135h6v6h-6zM201 153h6v6h-6zM201 159h6v6h-6zM201 165h6v6h-6zM201 189h6v6h-6zM201 201h6v6h-6zM201 207h6v6h-6zM201 213h6v6h-6zM201 219h6v6h-6zM201 225h6v6h-6zM201 231h6v6h-6zM201 237h6v6h-6zM201 243h6v6h-6zM201 255h6v6h-6zM201 279h6v6h-6zM207 27h6v6h-6zM207 33h6v6h-6zM207 39h6v6h-6zM207 45h6v6h-6zM207 51h6v6h-6zM207 69h6v6h-6zM207 81h6v6h-6zM207 87h6v6h-6zM207 99h6v6h-6zM207 111h6v6h-6zM207 117h6v6h-6zM207 123h6v6h-6zM207 141h6v6h-6zM207 171h6v6h-6zM207 183h6v6h-6zM207 213h6v6h-6zM207 225h6v6h-6zM207 231h6v6h-6zM207 261h6v6h-6zM213 15h6v6h-6zM213 21h6v6h-6zM213 27h6v6h-6zM213 57h6v6h-6zM213 69h6v6h-6zM213 75h6v6h-6zM213 81h6v6h-6zM213 117h6v6h-6zM213 129h6v6h-6zM213 135h6v6h-6zM213 153h6v6h-6zM213 159h6v6h-6zM213 165h6v6h-6zM213 183h6v6h-6zM213 189h6v6h-6zM213 201h6v6h-6zM213 237h6v6h-6zM213 261h6v6h-6zM213 273h6v6h-6zM213 279h6v6h-6zM219 39h6v6h-6zM219 51h6v6h-6zM219 75h6v6h-6zM219 81h6v6h-6zM219 99h6v6h-6zM219 105h6v6h-6zM219 123h6v6h-6zM219 129h6v6h-6zM219 135h6v6h-6zM219 159h6v6h-6zM219 177h6v6h-6zM219 183h6v6h-6zM219 207h6v6h-6zM219 225h6v6h-6zM219 231h6v6h-6zM219 237h6v6h-6zM219 243h6v6h-6zM219 249h6v6h-6zM219 255h6v6h-6zM219 261h6v6h-6zM219 267h6v6h-6zM219 279h6v6h-6zM225 21h6v6h-6zM225 27h6v6h-6zM225 33h6v6h-6zM225 39h6v6h-6zM225 57h6v6h-6zM225 87h6v6h-6zM225 99h6v6h-6zM225 117h6v6h-6zM225 147h6v6h-6zM225 159h6v6h-6zM225 171h6v6h-6zM225 177h6v6h-6zM225 183h6v6h-6zM225 189h6v6h-6zM225 195h6v6h-6zM225 213h6v6h-6zM225 219h6v6h-6zM225 225h6v6h-6zM225 231h6v6h-6zM225 255h6v6h-6zM225 261h6v6h-6zM225 273h6v6h-6zM231 15h6v6h-6zM231 33h6v6h-6zM231 39h6v6h-6zM231 51h6v6h-6zM231 63h6v6h-6zM231 75h6v6h-6zM231 105h6v6h-6zM231 111h6v6h-6zM231 117h6v6h-6zM231 123h6v6h-6zM231 135h6v6h-6zM231 141h6v6h-6zM231 147h6v6h-6zM231 153h6v6h-6zM231 159h6v6h-6zM231 165h6v6h-6zM231 177h6v6h-6zM231 183h6v6h-6zM231 189h6v6h-6zM231 195h6v6h-6zM231 201h6v6h-6zM231 207h6v6h-6zM231 219h6v6h-6zM231 231h6v6h-6zM231 237h6v6h-6zM231 243h6v6h-6zM231 249h6v6h-6zM231 255h6v6h-6zM231 261h6v6h-6zM231 279h6v6h-6zM237 63h6v6h-6zM237 69h6v6h-6zM237 87h6v6h-6zM237 99h6v6h-6zM237 105h6v6h-6zM237 117h6v6h-6zM237 123h6v6h-6zM237 135h6v6h-6zM237 159h6v6h-6zM237 171h6v6h-6zM237 219h6v6h-6zM237 225h6v6h-6zM237 231h6v6h-6zM237 255h6v6h-6zM237 261h6v6h-6zM237 267h6v6h-6zM237 279h6v6h-6zM243 63h6v6h-6zM243 69h6v6h-6zM243 81h6v6h-6zM243 99h6v6h-6zM243 135h6v6h-6zM243 147h6v6h-6zM243 159h6v6h-6zM243 165h6v6h-6zM243 177h6v6h-6zM243 195h6v6h-6zM243 207h6v6h-6zM243 231h6v6h-6zM243 243h6v6h-6zM243 255h6v6h-6zM243 261h6v6h-6zM249 63h6v6h-6zM249 75h6v6h-6zM249 81h6v6h-6zM249 93h6v6h-6zM249 99h6v6h-6zM249 111h6v6h-6zM249 117h6v6h-6zM249 123h6v6h-6zM249 129h6v6h-6zM249 135h6v6h-6zM249 159h6v6h-6zM249 165h6v6h-6zM249 183h6v6h-6zM249 189h6v6h-6zM249 195h6v6h-6zM249 201h6v6h-6zM249 207h6v6h-6zM249 219h6v6h-6zM249 231h6v6h-6zM249 255h6v6h-6zM255 75h6v6h-6zM255 81h6v6h-6zM255 93h6v6h-6zM255 99h6v6h-6zM255 111h6v6h-6zM255 123h6v6h-6zM255 135h6v6h-6zM255 141h6v6h-6zM255 147h6v6h-6zM255 153h6v6h-6zM255 159h6v6h-6zM255 171h6v6h-6zM255 177h6v6h-6zM255 207h6v6h-6zM255 213h6v6h-6zM255 219h6v6h-6zM255 231h6v6h-6zM255 237h6v6h-6zM255 243h6v6h-6zM255 249h6v6h-6zM255 255h6v6h-6zM255 261h6v6h-6zM255 267h6v6h-6zM255 279h6v6h-6zM261 63h6v6h-6zM261 69h6v6h-6zM261 75h6v6h-6zM261 81h6v6h-6zM261 105h6v6h-6zM261 111h6v6h-6zM261 117h6v6h-6zM261 129h6v6h-6zM261 135h6v6h-6zM261 159h6v6h-6zM261 201h6v6h-6zM261 207h6v6h-6zM261 213h6v6h-6zM261 231h6v6h-6zM261 237h6v6h-6zM261 243h6v6h-6zM261 255h6v6h-6zM261 261h6v6h-6zM261 279h6v6h-6zM267 75h6v6h-6zM267 93h6v6h-6zM267 105h6v6h-6zM267 117h6v6h-6zM267 123h6v6h-6zM267 129h6v6h-6zM267 141h6v6h-6zM267 165h6v6h-6zM267 201h6v6h-6zM267 207h6v6h-6zM267 225h6v6h-6zM267 231h6v6h-6zM267 243h6v6h-6zM267 249h6v6h-6zM267 255h6v6h-6zM267 261h6v6h-6zM267 267h6v6h-6zM267 273h6v6h-6zM267 279h6v6h-6zM273 63h6v6h-6zM273 75h6v6h-6zM273 81h6v6h-6zM273 87h6v6h-6zM273 117h6v6h-6zM273 123h6v6h-6zM273 147h6v6h-6zM273 153h6v6h-6zM273 165h6v6h-6zM273 177h6v6h-6zM273 195h6v6h-6zM273 207h6v6h-6zM273 231h6v6h-6zM273 237h6v6h-6zM273 249h6v6h-6zM273 255h6v6h-6zM279 69h6v6h-6zM279 81h6v6h-6zM279 93h6v6h-6zM279 111h6v6h-6zM279 129h6v6h-6zM279 135h6v6h-6zM279 159h6v6h-6zM279 177h6v6h-6zM279 183h6v6h-6zM279 189h6v6h-6zM279 201h6v6h-6zM279 231h6v6h-6zM279 237h6v6h-6zM279 243h6v6h-6zM279 249h6v6h-6zM279 255h6v6h-6zM279 273h6v6h-6zM15 15h6v6h-6zM15 21h6v6h-6zM15 27h6v6h-6zM15 33h6v6h-6zM15 39h6v6h-6zM15 45h6v6h-6zM15 51h6v6h-6zM21 15h6v6h-6zM21 51h6v6h-6zM27 15h6v6h-6zM27 51h6v6h-6zM33 15h6v6h-6zM33 51h6v6h-6zM39 15h6v6h-6zM39 51h6v6h-6zM45 15h6v6h-6zM45 51h6v6h-6zM51 15h6v6h-6zM51 21h6v6h-6zM51 27h6v6h-6zM51 33h6v6h-6zM51 39h6v6h-6zM51 45h6v6h-6zM51 51h6v6h-6zM27 27h6v6h-6zM27 33h6v6h-6zM27 39h6v6h-6zM33 27h6v6h-6zM33 33h6v6h-6zM33 39h6v6h-6zM39 27h6v6h-6zM39 33h6v6h-6zM39 39h6v6h-6zM243 15h6v6h-6zM243 21h6v6h-6zM243 27h6v6h-6zM243 33h6v6h-6zM243 39h6v6h-6zM243 45h6v6h-6zM243 51h6v6h-6zM249 15h6v6h-6zM249 51h6v6h-6zM255 15h6v6h-6zM255 51h6v6h-6zM261 15h6v6h-6zM261 51h6v6h-6zM267 15h6v6h-6zM267 51h6v6h-6zM273 15h6v6h-6zM273 51h6v6h-6zM279 15h6v6h-6zM279 21h6v6h-6zM279 27h6v6h-6zM279 33h6v6h-6zM279 39h6v6h-6zM279 45h6v6h-6zM279 51h6v6h-6zM255 27h6v6h-6zM255 33h6v6h-6zM255 39h6v6h-6zM261 27h6v6h-6zM261 33h6v6h-6zM261 39h6v6h-6zM267 27h6v6h-6zM267 33h6v6h-6zM267 39h6v6h-6zM15 243h6v6h-6zM15 249h6v6h-6zM15 255h6v6h-6zM15 261h6v6h-6zM15 267h6v6h-6zM15 273h6v6h-6zM15 279h6v6h-6zM21 243h6v6h-6zM21 279h6v6h-6zM27 243h6v6h-6zM27 279h6v6h-6zM33 243h6v6h-6zM33 279h6v6h-6zM39 243h6v6h-6zM39 279h6v6h-6zM45 243h6v6h-6zM45 279h6v6h-6zM51 243h6v6h-6zM51 249h6v6h-6zM51 255h6v6h-6zM51 261h6v6h-6zM51 267h6v6h-6zM51 273h6v6h-6zM51 279h6v6h-6zM27 255h6v6h-6zM27 261h6v6h-6zM27 267h6v6h-6zM33 255h6v6h-6zM33 261h6v6h-6zM33 267h6v6h-6zM39 255h6v6h-6zM39 261h6v6h-6zM39 267h6v6h-6z"/></clipPath></defs><path clip-path="url('#clip-path-background-color')" fill="#FFF" d="M0 0h300v300H0z"/><path clip-path="url('#a')" d="M0 0h300v300H0z"/></svg>